<svg width="60" height="60" viewBox="0 0 60 60" fill="none" xmlns="http://www.w3.org/2000/svg">
<g clip-path="url(#clip0_135_52)">
<circle cx="30" cy="30" r="30" fill="url(#paint0_linear_135_52)"/>
<path d="M19.9182 39.2294C19.9182 40.1695 20.7142 40.9369 21.6937 40.9369H23.7234V45.7742C23.7234 46.9996 24.7445 48 25.999 48C27.2576 48 28.2745 47.0036 28.2745 45.7742V40.9329H31.8171V45.7702C31.8171 46.9956 32.8382 47.996 34.0927 47.996C35.3514 47.996 36.3683 46.9996 36.3683 45.7702V40.9329H38.398C39.3774 40.9329 40.1735 40.1655 40.1735 39.2254V23.3475H19.9182V39.2294ZM34.8012 15.1193L36.6726 12.5078C36.7809 12.3552 36.7559 12.1503 36.61 12.0498C36.4642 11.9534 36.2558 12.0016 36.1474 12.1543L34.2053 14.8702C32.9258 14.3841 31.5004 14.1149 30.0042 14.1149C28.5079 14.1149 27.0826 14.3841 25.8031 14.8702L23.8609 12.1583C23.7525 12.0056 23.5441 11.9534 23.3983 12.0538C23.2524 12.1503 23.2274 12.3511 23.3358 12.5118L25.2071 15.1233C22.2313 16.4572 20.1474 18.9843 19.8807 21.9373H40.136C39.8609 18.9803 37.7728 16.4532 34.8012 15.1193ZM25.728 19.2374C25.5063 19.2374 25.2896 19.1741 25.1052 19.0553C24.9208 18.9365 24.7771 18.7678 24.6923 18.5703C24.6074 18.3728 24.5852 18.1555 24.6285 17.9458C24.6717 17.7362 24.7785 17.5436 24.9353 17.3925C25.0921 17.2413 25.2919 17.1384 25.5093 17.0967C25.7268 17.055 25.9522 17.0764 26.1571 17.1582C26.3619 17.24 26.537 17.3785 26.6602 17.5562C26.7834 17.734 26.8492 17.9429 26.8492 18.1567C26.8484 18.4431 26.73 18.7176 26.52 18.9201C26.3099 19.1226 26.0252 19.2367 25.728 19.2374ZM34.4136 19.2374C34.1919 19.2374 33.9751 19.1741 33.7908 19.0553C33.6064 18.9365 33.4627 18.7678 33.3779 18.5703C33.293 18.3728 33.2708 18.1555 33.3141 17.9458C33.3573 17.7362 33.4641 17.5436 33.6209 17.3925C33.7777 17.2413 33.9774 17.1384 34.1949 17.0967C34.4124 17.055 34.6378 17.0764 34.8427 17.1582C35.0475 17.24 35.2226 17.3785 35.3458 17.5562C35.469 17.734 35.5348 17.9429 35.5348 18.1567C35.534 18.4431 35.4156 18.7176 35.2055 18.9201C34.9955 19.1226 34.7107 19.2367 34.4136 19.2374ZM43.7244 23.2832C42.4657 23.2832 41.4488 24.2796 41.4488 25.509V34.2033C41.4488 35.4287 42.4699 36.4291 43.7244 36.4291C44.9831 36.4291 46 35.4327 46 34.2033V25.505C46.0042 24.2756 44.9872 23.2832 43.7244 23.2832ZM16.2756 23.2832C15.0169 23.2832 14 24.2796 14 25.509V34.2033C14 35.4287 15.0211 36.4291 16.2756 36.4291C17.5343 36.4291 18.5512 35.4327 18.5512 34.2033V25.505C18.5512 24.2756 17.5301 23.2832 16.2756 23.2832Z" fill="white"/>
</g>
<defs>
<linearGradient id="paint0_linear_135_52" x1="-1.19531" y1="21.6665" x2="53.6759" y2="21.6929" gradientUnits="userSpaceOnUse">
<stop stop-color="#00C5EB"/>
<stop offset="1" stop-color="#B544FE"/>
</linearGradient>
<clipPath id="clip0_135_52">
<rect width="60" height="60" fill="white"/>
</clipPath>
</defs>
</svg>
