<svg width="60" height="60" viewBox="0 0 60 60" fill="none" xmlns="http://www.w3.org/2000/svg">
<g clip-path="url(#clip0_135_55)">
<circle cx="30" cy="30" r="30" fill="url(#paint0_linear_135_55)"/>
</g>
<path d="M37.282 20C34.1313 20 32.7998 21.5138 30.6056 21.5138C28.3559 21.5138 26.6399 20.011 23.9096 20.011C21.2372 20.011 18.3873 21.6538 16.5776 24.4524C14.0364 28.3989 14.4678 35.8316 18.5835 42.1637C20.0557 44.4304 22.0217 46.9725 24.6004 47H24.6473C26.8884 47 27.5541 45.5224 30.6384 45.5051H30.6853C33.7234 45.5051 34.3329 46.9913 36.5646 46.9913H36.6115C39.1902 46.9638 41.2617 44.1471 42.7339 41.8891C43.7935 40.2651 44.1873 39.45 45 37.6129C39.0464 35.3375 38.0899 26.8395 43.9779 23.5814C42.1807 21.3155 39.6551 20.0031 37.2742 20.0031L37.282 20Z" fill="white"/>
<path d="M36.9358 12C35.1221 12.121 33.0061 13.2553 31.7667 14.7362C30.6422 16.0783 29.7172 18.0692 30.08 20H30.2251C32.1567 20 34.1336 18.8576 35.2883 17.3937C36.4008 16.0004 37.2441 14.0258 36.9358 12Z" fill="white"/>
<defs>
<linearGradient id="paint0_linear_135_55" x1="-1.19531" y1="21.6665" x2="53.6759" y2="21.6929" gradientUnits="userSpaceOnUse">
<stop stop-color="#00C5EB"/>
<stop offset="1" stop-color="#B544FE"/>
</linearGradient>
<clipPath id="clip0_135_55">
<rect width="60" height="60" fill="white"/>
</clipPath>
</defs>
</svg>
